<svg version="1.1" xmlns="http://www.w3.org/2000/svg" xmlns:xlink="http://www.w3.org/1999/xlink" width="174.23908" height="285.75751" viewBox="0,0,174.23908,285.75751"><defs><linearGradient x1="254.57535" y1="223.43853" x2="267.05594" y2="223.43853" gradientUnits="userSpaceOnUse" id="color-1"><stop offset="0" stop-color="#1700ff"></stop><stop offset="1" stop-color="#00ffe3"></stop></linearGradient><linearGradient x1="234.1663" y1="226.29406" x2="246.64689" y2="226.29406" gradientUnits="userSpaceOnUse" id="color-2"><stop offset="0" stop-color="#1700ff"></stop><stop offset="1" stop-color="#00ffe3"></stop></linearGradient><linearGradient x1="203.89593" y1="187.38318" x2="270.39245" y2="187.38318" gradientUnits="userSpaceOnUse" id="color-3"><stop offset="0" stop-color="#1700ff"></stop><stop offset="1" stop-color="#00ffe3"></stop></linearGradient><linearGradient x1="237.64925" y1="186.93082" x2="272.47883" y2="186.93082" gradientUnits="userSpaceOnUse" id="color-4"><stop offset="0" stop-color="#fc8700"></stop><stop offset="1" stop-color="#fddfbd"></stop></linearGradient><linearGradient x1="201.68472" y1="243.44878" x2="241.37249" y2="243.44878" gradientUnits="userSpaceOnUse" id="color-5"><stop offset="0" stop-color="#1700ff"></stop><stop offset="1" stop-color="#00ffe3"></stop></linearGradient><linearGradient x1="215.7008" y1="194.99011" x2="237.67903" y2="194.99011" gradientUnits="userSpaceOnUse" id="color-6"><stop offset="0" stop-color="#fc8700"></stop><stop offset="1" stop-color="#fddfbd"></stop></linearGradient><linearGradient x1="210.9356" y1="78.7602" x2="229.73486" y2="78.7602" gradientUnits="userSpaceOnUse" id="color-7"><stop offset="0" stop-color="#fc8700"></stop><stop offset="1" stop-color="#fddfbd"></stop></linearGradient><linearGradient x1="209.78925" y1="151.1739" x2="293.55187" y2="151.1739" gradientUnits="userSpaceOnUse" id="color-8"><stop offset="0" stop-color="#fc8700"></stop><stop offset="1" stop-color="#fddfbd"></stop></linearGradient><linearGradient x1="247.19554" y1="116.65353" x2="247.19554" y2="140.09241" gradientUnits="userSpaceOnUse" id="color-9"><stop offset="0" stop-color="#000000"></stop><stop offset="1" stop-color="#009203"></stop></linearGradient><linearGradient x1="279.08541" y1="236.82593" x2="306.10993" y2="261.24034" gradientUnits="userSpaceOnUse" id="color-10"><stop offset="0" stop-color="#1700ff"></stop><stop offset="1" stop-color="#00ffe3"></stop></linearGradient><linearGradient x1="259.77522" y1="191.71975" x2="290.0717" y2="219.09011" gradientUnits="userSpaceOnUse" id="color-11"><stop offset="0" stop-color="#fc8700"></stop><stop offset="1" stop-color="#fddfbd"></stop></linearGradient><linearGradient x1="259.77522" y1="191.71976" x2="290.07165" y2="219.09011" gradientUnits="userSpaceOnUse" id="color-12"><stop offset="0" stop-color="#1700ff"></stop><stop offset="1" stop-color="#00ffe3"></stop></linearGradient><linearGradient x1="204.66992" y1="188.02181" x2="245.43315" y2="188.02181" gradientUnits="userSpaceOnUse" id="color-13"><stop offset="0" stop-color="#00ffe3"></stop><stop offset="1" stop-color="#1700ff"></stop></linearGradient><linearGradient x1="266.72538" y1="189.11343" x2="273.25281" y2="189.11343" gradientUnits="userSpaceOnUse" id="color-14"><stop offset="0" stop-color="#00ffe3"></stop><stop offset="1" stop-color="#1700ff"></stop></linearGradient><linearGradient x1="276.22018" y1="115.49254" x2="276.22018" y2="138.93141" gradientUnits="userSpaceOnUse" id="color-15"><stop offset="0" stop-color="#000000"></stop><stop offset="1" stop-color="#009203"></stop></linearGradient><radialGradient cx="231.14626" cy="42.29465" r="47.17785" gradientUnits="userSpaceOnUse" id="color-16"><stop offset="0" stop-color="#ff6363"></stop><stop offset="1" stop-color="#823939"></stop></radialGradient><linearGradient x1="245.34646" y1="90.67374" x2="252.09787" y2="112.73793" gradientUnits="userSpaceOnUse" id="color-17"><stop offset="0" stop-color="#ffffff"></stop><stop offset="1" stop-color="#bababa"></stop></linearGradient><radialGradient cx="174.42125" cy="29.84391" r="16.41076" gradientUnits="userSpaceOnUse" id="color-18"><stop offset="0" stop-color="#ffffff"></stop><stop offset="1" stop-color="#bababa"></stop></radialGradient></defs><g transform="translate(-136.31861,-15.76381)"><g stroke-miterlimit="10"><path d="" fill="#ffffff" stroke="#000000" stroke-width="2" stroke-linecap="butt"></path><g stroke-width="1.5"><path d="M240.35327,292.35418l2.03173,-11.90011l60.37127,-0.29024l6.38541,14.51232c0,0 -24.0425,2.32197 -35.11984,2.32197c-11.17407,0 -33.66859,-4.64394 -33.66859,-4.64394z" fill="#929292" stroke="#000000" stroke-linecap="butt"></path><path d="M244.18342,284.33002c-3.97148,-1.57846 -3.29101,-7.24366 -3.18674,-11.80935c0.06022,-2.63724 3.22444,-9.81249 3.22444,-9.81249l2.08047,-7.58105l28.33694,-0.67944l-1.27907,7.36287c0,0 16.03154,4.25771 22.92554,6.27117c6.36365,1.85857 10.66037,19.01208 4.96277,20.37125c-9.48678,2.26307 -36.78325,3.93777 -57.06435,-4.12295z" fill="#ff0000" stroke="#000000" stroke-linecap="butt"></path><g stroke="#000000"><path d="M247.02892,256.07337c0,0 -8.29215,-11.57684 -2.03173,-14.22209c6.26043,-2.64525 17.22635,-5.97286 32.21736,0c8.47917,3.37836 -4.06345,14.22209 -4.06345,14.22209z" fill="#ffffff" stroke-linecap="butt"></path><path d="M274.02183,244.17326c0,0 -9.04571,2.71171 -13.34965,2.76062c-4.20777,0.04782 -12.19204,-2.47037 -12.19204,-2.47037" fill="#000000" stroke-linecap="round"></path></g><path d="M267.05594,230.29741c0,16.19925 -1.06095,15.04171 -5.95005,15.04171c-4.88911,0 -6.53054,1.40823 -6.53054,-14.79102c0,-11.7289 1.28884,-22.43038 3.53551,-27.12317c0.8563,-1.78861 2.51657,-1.91793 3.86577,-1.91793c4.88911,0 5.07932,12.59114 5.07932,28.79039z" fill="#1700ff" stroke="url(#color-1)" stroke-linecap="butt"></path><path d="M273.44136,289.16148l-0.29024,-26.70269l16.54405,4.9342l-1.45123,21.76848c0,0 -5.1419,0.87074 -7.83665,0.87074c-2.07644,0 -6.96592,-0.87074 -6.96592,-0.87074z" fill="#ffffff" stroke="#000000" stroke-linecap="butt"></path></g><path d="M211.65233,224.12396c0,0 14.93966,-9.60624 19.70927,-14.09591c3.64486,-3.43094 6.45262,-10.53046 6.45262,-10.53046l6.32723,9.73423c0,0 -5.45817,4.56999 -10.18076,6.73471c-5.85983,2.68598 -22.30837,8.15745 -22.30837,8.15745z" fill="#1700ff" stroke="#000000" stroke-width="1.5" stroke-linecap="butt"></path><g stroke-width="1.5"><path d="M219.94423,296.12739l2.03173,-11.90011l60.37126,-0.29024l6.38542,14.51232c0,0 -24.04249,2.32197 -35.11983,2.32197c-11.17407,0 -33.66859,-4.64394 -33.66859,-4.64394z" fill="#929292" stroke="#000000" stroke-linecap="butt"></path><path d="M223.77439,288.10321c-3.97148,-1.57846 -3.29101,-7.24365 -3.18674,-11.80934c0.06021,-2.63724 3.22444,-9.81249 3.22444,-9.81249l2.08047,-7.58105l28.33694,-0.67944l-1.27907,7.36287c0,0 16.03154,4.25771 22.92555,6.27117c6.36365,1.85857 10.66037,19.01209 4.96277,20.37125c-9.48678,2.26307 -36.78325,3.93777 -57.06435,-4.12295z" fill="#ff0000" stroke="#000000" stroke-linecap="butt"></path><g stroke="#000000"><path d="M226.61988,259.84659c0,0 -8.29216,-11.57684 -2.03173,-14.22209c6.26043,-2.64525 17.22635,-5.97286 32.21736,0c8.47917,3.37836 -4.06345,14.22209 -4.06345,14.22209z" fill="#ffffff" stroke-linecap="butt"></path><path d="M253.61281,247.94648c0,0 -9.04571,2.71171 -13.34965,2.76061c-4.20777,0.04782 -12.19203,-2.47037 -12.19203,-2.47037" fill="#000000" stroke-linecap="round"></path></g><path d="M246.64689,234.07062c0,16.19925 -1.06095,15.04171 -5.95005,15.04171c-4.88911,0 -6.53054,1.40823 -6.53054,-14.79102c0,-11.7289 1.28884,-25.62308 3.53551,-30.31588c0.8563,-1.78861 2.51657,1.27479 3.86577,1.27479c4.88911,0 5.07932,12.59114 5.07932,28.79039z" fill="#1700ff" stroke="url(#color-2)" stroke-linecap="butt"></path><path d="M253.0323,292.93469l-0.29024,-26.70269l16.54405,4.9342l-1.45122,21.76848c0,0 -5.1419,0.87074 -7.83666,0.87074c-2.07644,0 -6.96592,-0.87074 -6.96592,-0.87074z" fill="#ffffff" stroke="#000000" stroke-linecap="butt"></path></g><g stroke-width="1.5" stroke-linecap="butt"><path d="M269.8106,193.52292c-2.56397,11.27992 -13.21835,18.89681 -23.79721,17.01283c-10.57887,-1.88399 -14.74819,-20.53455 -14.74819,-20.53455c0,0 -8.42659,-0.85273 -12.42247,-0.71719c-3.58035,0.12146 -14.94682,5.46628 -14.94682,5.46628c0,0 11.87908,-21.06256 22.57905,-25.00886c3.99067,-1.47182 11.15984,-4.70959 17.96141,-5.49452c9.26504,-1.06921 18.205,0.84237 20.80074,3.44586c5.09895,5.11417 5.93527,19.83908 4.57347,25.83013z" fill="#1700ff" stroke="url(#color-3)"></path><path d="M255.06404,166.26142c9.61793,0 17.41479,9.254 17.41479,20.66938c0,11.41539 -7.79686,20.66938 -17.41479,20.66938c-9.61793,0 -17.41479,-9.254 -17.41479,-20.66938c0,-11.41539 7.79686,-20.66938 17.41479,-20.66938z" fill="url(#color-4)" stroke="#000000"></path></g><g stroke-width="1.5"><path d="M210.80991,261.49847c-8.98692,-1.64936 -10.50039,-15.63972 -8.11765,-24.46058c2.38275,-8.82087 11.46509,-14.04001 20.28595,-11.65725c7.28476,1.9678 17.08545,9.56938 18.31236,14.32667c1.2269,4.75728 -11.72996,8.05127 -12.1449,9.58738c-2.38275,8.82087 -4.44866,14.75246 -18.33575,12.20377z" fill="#ffffff" stroke="url(#color-5)" stroke-linecap="butt"></path><path d="M237.72026,226.01876c-0.07059,4.07976 -7.85971,6.80606 -17.39751,6.08937c-9.53779,-0.71669 -17.21249,-4.60498 -17.14191,-8.68475c0.07059,-4.07976 7.85971,-6.80605 17.39751,-6.08936c9.53779,0.71669 17.21249,4.60498 17.14191,8.68475z" fill="#ffffff" stroke="#000000" stroke-linecap="butt"></path><path d="M238.49172,218.71091c-0.07057,4.07976 -7.85971,6.80605 -17.39751,6.08936c-9.5378,-0.71669 -17.21249,-4.60498 -17.14191,-8.68475c0.07057,-4.07976 7.85971,-6.80606 17.39751,-6.08937c9.5378,0.71669 17.21249,4.60498 17.14191,8.68475z" fill="#ffffff" stroke="#000000" stroke-linecap="butt"></path><path d="M231.3013,216.82875c0,0 -5.93462,2.09972 -10.07986,1.59884c-3.8941,-0.47052 -11.28327,-3.76182 -11.28327,-3.76182" fill="#000000" stroke="#000000" stroke-linecap="round"></path><path d="M229.49996,203.03028c-4.70908,17.77749 -4.1443,15.48085 -8.12985,14.66697c-6.30726,-1.288 -7.51301,1.31367 -2.80394,-16.46382c4.70908,-17.77749 12.9832,-30.64201 17.55437,-29.43115c4.57116,1.21086 -1.9115,13.45052 -6.62057,31.22801z" fill="url(#color-6)" stroke="#000000" stroke-linecap="butt"></path></g><path d="M266.4521,73.0323l24.67399,-11.16204l2.64365,42.00454z" fill="#0d009a" stroke="#000000" stroke-width="1.5" stroke-linecap="round"></path><path d="M294.41688,128.40937c-2.64002,24.22699 -22.84761,36.66518 -46.13745,33.68433c-4.50273,-0.57631 -23.00399,3.09702 -39.03644,5.22992c-16.05289,2.13562 -55.5136,27.22269 -55.5136,27.22269c0,0 13.66923,-40.07557 22.32832,-48.01911c8.6591,-7.94354 10.0408,-6.65685 10.0408,-6.65685c0,0 -2.31524,-0.17623 -8.857,0.01161c-9.58799,0.27531 -39.05236,15.95262 -39.05236,15.95262c0,0 24.98788,-45.43502 40.57324,-50.90891c10.51766,-3.69399 14.41811,-3.58047 14.41811,-3.58047c0,0 -7.89976,-1.10964 -11.92975,-1.65369c-7.5272,-1.01617 -40.51546,13.29963 -40.51546,13.29963c0,0 21.75093,-24.23362 39.72759,-34.37468c12.27314,-6.92356 27.90555,-9.08005 36.46398,-9.83641c18.87533,-1.66815 42.85359,3.58362 43.64047,3.86025c19.51899,6.86227 30.68314,20.14622 32.23037,39.88043c0.23404,2.9851 1.96611,12.70545 1.61923,15.88866z" fill="#1700ff" stroke="#00ffe6" stroke-width="1.5" stroke-linecap="butt"></path><path d="M268.802,99.46873c0,0 5.5346,-12.21417 12.96997,-13.16829c4.41777,-0.56688 8.16926,2.14529 11.44752,13.57661c4.15918,14.50303 -1.50592,41.88996 -1.50592,41.88996" fill="#1700ff" stroke="#000000" stroke-width="1.5" stroke-linecap="round"></path><path d="M291.2662,124.73022c0,4.4878 -0.14933,16.34564 -2.99551,20.02365c-6.20777,8.02201 -19.7268,5.82531 -33.57486,5.82531c-14.06658,0 -28.62813,-0.61999 -34.74556,-8.8506c-2.66617,-3.58717 -1.82484,-12.66503 -1.82484,-16.99835c0,-6.61913 2.04551,-20.92371 11.36484,-27.51087c9.31932,-6.58716 20.54134,22.51732 31.37405,22.51732c10.90254,0 17.71841,-23.85393 22.76415,-24.09789c4.30164,-0.208 7.63774,22.52167 7.63774,29.09144z" fill="#ffffff" stroke="#000000" stroke-width="1.5" stroke-linecap="butt"></path><path d="M205.3546,95.35642l11.16204,-38.77343l29.66755,25.26148" fill="#1700ff" stroke="#000000" stroke-width="1.5" stroke-linecap="round"></path><path d="M211.81682,106.81219c0,0 4.52553,-20.23222 19.68485,-20.71809c15.15933,-0.48588 20.851,17.19322 20.851,17.19322" fill="none" stroke="#000000" stroke-width="1.5" stroke-linecap="round"></path><path d="M210.9356,91.83155l7.04972,-26.14269l11.74952,14.09944z" fill="url(#color-7)" stroke="#000000" stroke-width="1.5" stroke-linecap="round"></path><path d="M258.95501,110.04331c0,0 4.16763,3.9549 4.67043,5.19918c1.11822,2.76721 -2.02679,4.49419 -2.02679,4.49419" fill="none" stroke="#000000" stroke-width="1.5" stroke-linecap="round"></path><path d="M288.61907,153.66691c-5.52706,5.5337 -11.70593,10.68407 -26.40183,12.27518c-3.00977,0.32586 -6.37674,0.50243 -10.16855,0.50243c-12.82124,0 -26.78247,-5.04242 -34.80993,-11.86005c-5.93861,-5.04358 -7.96487,-11.59063 -7.34148,-15.017c1.39968,-7.69314 26.0517,3.67173 32.16431,3.67173c4.70034,0 10.20369,-5.22779 21.63342,-7.09388c11.42971,-1.86609 13.17448,7.70201 15.66802,6.77068c18.35758,-6.85649 15.91507,4.0839 9.25605,10.7509z" fill="url(#color-8)" stroke="#000000" stroke-width="1.5" stroke-linecap="butt"></path><path d="M232.14478,130.53181c0.15295,-0.91765 0.7092,-1.27067 1.2008,-1.39938c-0.85799,-0.02737 -1.71973,-0.03659 -2.53035,-0.29398c-0.01226,-0.00389 -0.02452,-0.0078 -0.03676,-0.01174l-0.00097,0.00677l-3.46672,-0.49525c-0.86853,-0.10996 -1.54014,-0.85148 -1.54014,-1.74986c0,-0.97419 0.78974,-1.76393 1.76393,-1.76393c3.58639,0 8.9367,0 12.52309,0c0.11852,-0.67272 0.61828,-1.21401 1.2682,-1.39277l3.34111,-1.00233l0.01687,0.05623l0.1827,-0.10364c4.27193,-0.27034 8.5323,-0.34919 12.79947,-0.3716c-0.23142,-2.66658 -0.54907,-5.33917 -0.59428,-8.00349c-0.01423,-0.8389 0.6192,-1.8118 0.15719,-2.51216c-0.34943,-0.52969 -1.26622,-0.08581 -1.89934,-0.12872c0,0 -1.71126,-0.42782 -1.28344,-2.13907c0.42782,-1.71126 2.13907,-1.28345 2.13907,-1.28345c1.1152,0.38186 2.59028,0.26586 3.4608,0.98621c-0.00483,-1.40484 -0.00797,-2.80951 -0.00797,-4.21394v-2.11671c0,-0.97419 0.78974,-1.76393 1.76393,-1.76393c0.86706,0 1.58801,0.62559 1.73608,1.45003l0.34638,1.73189l-0.03258,0.00651c0.02066,0.0546 0.0401,0.10978 0.05825,0.1656c0.16657,0.51248 0.18901,1.04801 0.16155,1.5915c0.88577,0.07609 1.58453,0.80681 1.61022,1.70608l0.06311,1.90359c0.12896,0.19551 0.22006,0.41821 0.26284,0.65764l0.34818,1.74948l-0.03526,0.00702l0.0499,0.07706c0.33185,3.31963 0.5192,6.7089 0.60737,10.12069c2.74327,0 5.48654,0 8.22981,0c1.05836,0 2.13857,-0.21399 3.17507,0h3.52785c0.58616,0 1.10554,0.2859 1.4263,0.72587c0.02894,0.0049 0.05767,0.00998 0.08619,0.01523c0.02405,0.00442 0.04807,0.00893 0.07207,0.01351l0.00076,-0.0084l3.49545,0.31777c0.90789,0.07221 1.62214,0.83185 1.62214,1.75831c0,0.58444 -0.28422,1.10248 -0.72199,1.42346l-1.06087,0.79565l1.39117,0.27823c0.82444,0.14808 1.45003,0.86902 1.45003,1.73608c0,0.58792 -0.28762,1.10865 -0.72983,1.42917l-1.41163,1.04748l-0.10923,-0.1472l-0.30563,0.37584c-6.6732,0.7688 -13.40392,0.57271 -20.12258,0.34293c-0.05407,2.91453 -0.14799,5.8116 -0.25346,8.6618c-0.08504,2.29799 -0.21231,4.60094 -0.53225,6.87815c-0.20159,1.43492 0.12656,3.1749 -0.82449,4.26812c-0.17069,0.19621 -0.36701,0.35507 -0.58228,0.48633l0.02558,0.04263l-1.73906,1.04344c-0.0523,0.03263 -0.10644,0.0626 -0.1622,0.08971c-0.08121,1.12229 -0.15395,2.2458 -0.21524,3.37088c-1.98718,-0.20765 -4.22041,-0.139 -4.68967,-0.14877c-0.36061,-0.00751 -0.71135,-0.01752 -1.05275,-0.02908c0.24755,-1.30224 0.45465,-2.39213 0.46304,-2.44625c0.19795,-1.27522 0.38784,-2.57065 0.56047,-3.87225c-0.18739,-0.28017 -0.29664,-0.61701 -0.29664,-0.97938c0,-0.11025 0.01011,-0.21813 0.02946,-0.32277l0.5711,-3.42657c0.10919,-0.81193 0.22249,-1.62432 0.33774,-2.43717c-0.01022,-0.40708 -0.01708,-0.81126 -0.01839,-1.21149c-0.01048,-3.19887 -0.02614,-6.40062 -0.08902,-9.60108c-7.49935,0.51631 -15.05715,0.47197 -22.26908,0.46017l-2.26121,-0.37077c0,0 -1.73992,-0.28999 -1.44994,-2.02991z" fill="#00d5ff" stroke="none" stroke-width="1.5" stroke-linecap="butt"></path><path d="M286.03058,138.65678c0.12203,0.80191 -3.74448,2.0554 -8.63611,2.79979c-4.89161,0.74438 -8.95596,0.69774 -9.078,-0.10416c-0.12203,-0.80191 3.74448,-2.05539 8.63609,-2.79977c4.89161,-0.74438 8.95598,-0.69774 9.07801,0.10416z" fill="#000000" stroke="#000000" stroke-width="1.5" stroke-linecap="butt"></path><g stroke="none" stroke-width="1.5" stroke-linecap="butt"><g fill="url(#color-9)"><path d="M250.42685,127.9891c-0.19595,6.77981 -1.80005,12.19807 -3.5828,12.10199c-1.78279,-0.09601 -3.06916,-5.67 -2.87319,-12.44981c0.09389,-3.24857 0.79579,-10.96865 3.20871,-10.98773c2.91061,-0.02297 3.34941,7.80424 3.24735,11.33548z"></path></g><path d="M245.64195,120.34026c0.63671,0.03429 1.12027,1.18951 1.08009,2.58025c-0.04021,1.39073 -0.58895,2.49033 -1.22566,2.45607c-0.63671,-0.03429 -1.12027,-1.18951 -1.08009,-2.58026c0.04021,-1.39073 0.58893,-2.49031 1.22566,-2.45604z" fill="#ffffff"></path></g><path d="M246.62189,154.36843c-3.82054,0.81426 -6.74693,1.42529 -8.38811,1.85959c-17.23991,4.56226 -21.62876,-18.07424 -21.62876,-18.07424" fill="none" stroke="#000000" stroke-width="1.5" stroke-linecap="round"></path><g stroke-width="1.5"><path d="M293.46131,270.52869c-8.61681,3.03905 -16.88832,-8.34528 -19.20854,-17.18277c-2.3202,-8.83752 2.96311,-17.88266 11.80062,-20.20287c7.29851,-1.91617 19.5818,-0.19621 23.01237,3.32064c3.43057,3.51687 -6.17157,12.81899 -5.76752,14.35803c2.3202,8.83752 3.47823,15.01091 -9.83695,19.70701z" fill="#ffffff" stroke="url(#color-10)" stroke-linecap="butt"></path><path d="M299.16001,226.36422c1.96796,3.57446 -3.43336,9.81376 -12.06417,13.93591c-8.63081,4.12217 -17.22283,4.56618 -19.1908,0.99177c-1.96796,-3.57446 3.43336,-9.81376 12.06417,-13.93591c8.63081,-4.12217 17.22283,-4.56619 19.1908,-0.99177z" fill="#ffffff" stroke="#000000" stroke-linecap="butt"></path><path d="M296.19447,219.64073c1.96796,3.57441 -3.43335,9.81374 -12.06417,13.93589c-8.63081,4.12216 -17.22281,4.56619 -19.19079,0.99177c-1.96796,-3.57441 3.43336,-9.81374 12.06415,-13.9359c8.63081,-4.12216 17.22283,-4.56621 19.19079,-0.99177z" fill="#ffffff" stroke="#000000" stroke-linecap="butt"></path><path d="M289.02044,221.58425c0,0 -4.10411,4.77333 -7.94936,6.40058c-3.61229,1.52866 -11.65967,2.34859 -11.65967,2.34859" fill="#000000" stroke="#000000" stroke-linecap="round"></path><path d="M280.5946,210.50958c4.75691,17.76476 4.10459,15.49144 0.24214,16.7677c-6.11239,2.01973 -5.86438,4.87646 -10.62127,-12.88829c-4.75691,-17.76476 -3.9774,-33.04052 0.59048,-34.26366c4.56791,-1.22316 5.03176,12.6195 9.78865,30.38425z" fill="url(#color-11)" stroke="url(#color-12)" stroke-linecap="butt"></path></g><g stroke="#000000" stroke-width="1.5" stroke-linecap="butt"><path d="M232.03922,191.54298c0,0 -8.42659,-0.85273 -12.42247,-0.71719c-3.58035,0.12146 -14.94682,5.46628 -14.94682,5.46628c0,0 11.87908,-21.06256 22.57905,-25.00886c3.99067,-1.47182 11.15984,-4.70959 17.96141,-5.49452c0.07428,-0.00857 0.14854,-0.01694 0.22276,-0.02514c-0.55847,3.7484 -0.98189,7.52199 -1.14327,11.45688c-0.30219,7.36775 0.36922,15.21261 -0.36032,22.68632c-0.34031,3.48632 -0.84075,6.93466 -1.38776,10.37333c-7.4659,-5.15308 -10.50259,-18.73709 -10.50259,-18.73709z" fill="url(#color-13)"></path><path d="M270.58461,195.0647c-0.69046,3.03766 -1.96767,5.80968 -3.67213,8.20204c0.02692,-0.20165 0.05326,-0.40329 0.07896,-0.60494c0.94231,-7.39219 0.39563,-17.6366 0.50368,-24.57154c0.02507,-1.60907 0.28757,-3.55819 0.66022,-5.70601c3.16741,6.48956 3.57129,17.6562 2.42926,22.68042z" fill="#000000"></path><path d="M273.25281,188.4726c0,6.52565 -2.54792,12.34498 -6.52742,16.13301c0.09438,-0.64795 0.18345,-1.29586 0.26604,-1.9438c0.94231,-7.39219 0.39563,-17.6366 0.50368,-24.57154c0.02017,-1.29419 0.19393,-2.80837 0.45506,-4.46898c3.26993,3.75751 5.30263,9.02267 5.30263,14.85132z" fill="url(#color-14)"></path><path d="M238.42325,188.4726c0,-6.32617 2.39454,-11.98857 6.16655,-15.78001c-0.13465,1.49021 -0.23711,2.99683 -0.2999,4.52785c-0.30219,7.36775 0.36922,15.21262 -0.36032,22.68632c-0.10562,1.08192 -0.22665,2.16019 -0.35969,3.23564c-3.17843,-3.74463 -5.14662,-8.93442 -5.14662,-14.66979z" fill="#000000"></path></g><g stroke="none" stroke-width="1.5" stroke-linecap="butt"><g fill="url(#color-15)"><path d="M279.45152,126.82812c-0.19595,6.77981 -1.80005,12.19807 -3.5828,12.10199c-1.78279,-0.09601 -3.06916,-5.66999 -2.87319,-12.44981c0.09389,-3.24857 0.7958,-10.96866 3.2087,-10.98774c2.91061,-0.02296 3.34943,7.80425 3.24735,11.33548z"></path></g><path d="M274.6666,119.17928c0.63671,0.03429 1.12027,1.18951 1.08008,2.58025c-0.04021,1.39073 -0.58895,2.49034 -1.22566,2.45607c-0.63671,-0.03429 -1.12027,-1.18951 -1.08007,-2.58026c0.04021,-1.39073 0.5889,-2.49032 1.22566,-2.45605z" fill="#ffffff"></path></g><g stroke="#000000" stroke-width="1.5" stroke-linecap="round"><g fill="none"><path d="M257.70691,234.81517l0.19073,4.76646"></path><path d="M255.16488,233.67119l0.19061,5.08428"></path><path d="M252.30506,236.72177v-4.95706"></path><path d="M249.76291,230.87497l-0.12711,4.44863"></path><path d="M247.09365,233.5441l-0.1906,-4.32151"></path><path d="M244.36092,227.31596v4.63934"></path><path d="M242.00947,226.42622v3.81321"></path><path d="M239.59447,224.51974v4.44863"></path><path d="M237.56087,228.45994v-4.57574"></path></g><g><path d="M259.74064,214.98682l0.31771,20.97231l-23.64143,-13.346l-0.49597,-62.30556c2.07378,0.16766 4.14779,0.33108 6.22209,0.48929l10.16202,3.34797z" fill="#cc99ff"></path><path d="M266.78158,179.10889c3.11148,1.04356 9.55199,-0.7042 9.85062,0.31783c0.29495,0.98758 -5.2253,4.1436 -8.37492,4.67872c-4.48431,0.76388 -9.12612,0.41429 -13.23293,-1.18333c-5.42611,-1.8532 -9.85702,-5.76547 -14.61708,-8.89738c-3.386,-2.22308 -6.07813,-5.35499 -9.6599,-7.3086c-3.11406,-1.58878 -7.99371,-0.26048 -10.16844,-3.17756c-0.75051,-1.01428 -0.70954,-2.96083 -0.16541,-4.54922c3.8513,0.33967 7.70296,0.67299 11.55532,0.99377c5.82723,3.06697 11.14794,7.20489 16.89099,10.22838c6.03876,3.0379 11.81567,6.84841 17.92173,8.89738z" fill="#7f00ff"></path><path d="M280.69768,169.60085c2.04135,0.61769 1.48972,4.38636 0.31782,5.7197c-2.41762,2.74173 -6.09734,4.69139 -9.646,5.25077c-4.36864,0.685 -9.12624,0.41429 -13.23292,-1.18333c-5.42611,-1.8532 -10.00061,-5.55702 -14.61708,-8.89737c-3.13191,-2.26627 -6.37431,-4.96605 -8.89738,-8.19835c-0.3173,-0.43922 -0.79363,-1.3505 -1.04508,-2.17593c2.35047,0.19352 4.70123,0.38205 7.05233,0.5642c4.85555,2.202 9.4865,5.15367 14.64735,6.37819c8.27316,1.99939 17.29001,0.12083 25.42094,2.54214z" fill="#cc99ff"></path><path d="M280.66655,167.90909c-1.50744,3.45847 -5.15405,7.73434 -9.21508,7.944c-5.49354,0.28092 -10.20524,-4.5948 -15.25261,-6.99076c-5.05118,-2.39584 -9.85701,-5.85825 -15.25261,-7.62631c-4.9884,-1.60577 -11.11674,-0.73872 -16.32258,-1.87817c8.91136,0.77328 17.8253,1.50052 26.74589,2.10516c3.02837,1.78763 6.145,3.36549 9.59577,3.90394c3.17239,0.50999 6.22958,-1.41936 9.37944,-2.83043c2.95878,0.13002 5.91861,0.24063 8.87962,0.32906c1.1656,1.37274 1.82854,3.36358 1.44218,5.04351z" fill="#7f00ff"></path><path d="M268.66977,163.82712c-1.43879,0.15122 -2.7213,-0.7512 -3.93135,-1.44394c-0.07487,-0.04287 -0.1501,-0.08531 -0.22568,-0.12736c1.89108,0.09868 3.78255,0.19017 5.67444,0.27374c-0.3759,0.63669 -0.78421,1.22446 -1.51743,1.29758z" fill="#666666"></path><path d="M276.45491,163.00086c-2.86107,2.70998 -7.48012,2.88654 -11.43939,3.05057c-3.62767,0.1335 -7.01748,-0.71306 -10.67688,-2.22431c-1.61782,-0.63775 -3.12474,-1.5093 -4.58497,-2.47499c8.95876,0.62188 17.92395,1.12476 26.89973,1.43111c-0.06022,0.07638 -0.1263,0.14902 -0.19851,0.21761z" fill="#cc99ff"></path></g></g><g stroke-width="1.5"><g fill="none" stroke="#bdbdbd" stroke-linecap="round"><g><path d="M190.74984,18.7522l-3.95982,2.71191l2.3925,-4.20149"></path><path d="M187.62515,16.51382l-0.68838,4.74981l-1.46912,-4.60635"></path></g><path d="M185.51605,17.47131l-2.1028,4.31424l0.00419,-4.83494"></path><path d="M181.69346,17.06909l1.74833,4.46964l-3.55318,-3.27893"></path><g><path d="M181.04775,17.28845l0.16667,4.79655l-2.26433,-4.27194"></path><path d="M177.48315,18.72639l3.64073,3.12726l-4.67613,-1.22905"></path></g><g><path d="M176.50351,19.62485l2.4423,4.13155l-4.03292,-2.66684"></path><path d="M174.06213,22.5936l4.69344,1.00299l-4.6939,1.15926"></path></g><g><path d="M173.68551,22.97224l2.4423,4.13155l-4.03291,-2.66684"></path><path d="M171.24413,25.94101l4.69344,1.00299l-4.6939,1.15926"></path></g></g><g fill="none" stroke="#bdbdbd" stroke-linecap="round"><g><path d="M176.10118,22.63339l-0.25379,4.79271l-1.8817,-4.45374"></path><path d="M172.42442,23.75379l3.35301,3.43392l-4.55058,-1.63361"></path></g><path d="M171.90259,26.01049l2.14735,4.29225l-3.83653,-2.94243"></path><path d="M169.25952,28.80124l4.61179,1.32882l-4.76348,0.82811"></path><g><path d="M169.04118,29.44729l3.90988,2.78339l-4.76846,-0.79893"></path><path d="M168.01607,33.15178l4.69627,-0.9898l-3.81843,2.96586"></path></g><g><path d="M168.13397,34.47579l4.76519,0.57225l-4.56911,1.5811"></path><path d="M169.00714,38.21899l3.64951,-3.11703l-1.93287,4.43177"></path></g><g><path d="M169.07884,38.7482l4.76519,0.57225l-4.56911,1.58109"></path><path d="M169.95204,42.49138l3.64948,-3.11703l-1.93287,4.43177"></path></g></g><g fill="none" stroke="#bdbdbd" stroke-linecap="round"><g><path d="M172.61866,44.02551l4.79522,-0.20091l-4.25568,2.29476"></path><path d="M174.08198,47.57976l3.10121,-3.66295l-1.1956,4.68479"></path></g><path d="M176.37796,47.88565l4.06978,-2.54391l-2.56615,4.09776"></path><path d="M179.40631,50.25277l0.88642,-4.71686l1.27518,4.66374"></path><g><path d="M180.07014,50.40898l2.40089,-4.15575l-0.34406,4.82269"></path><path d="M183.85501,51.07892l-1.42982,-4.5815l3.3139,3.52063"></path></g><g><path d="M185.16191,50.83626l0.11871,-4.79796l2.00641,4.39899"></path><path d="M188.80568,49.61274l-3.4484,-3.33813l4.5948,1.50478"></path></g><g><path d="M189.3257,49.49128l0.11871,-4.79796l2.0064,4.39897"></path><path d="M192.96947,48.26778l-3.44838,-3.33812l4.5948,1.50479"></path></g></g><path d="M286.41745,65.91186c8.38589,27.40583 -2.31211,29.33278 -22.21354,35.42243c-19.90145,6.08962 -70.77997,21.09719 -52.99829,-2.86663c5.40047,-7.27806 7.02043,-21.2803 7.36573,-28.61621c0.85706,-18.20857 -40.14245,-17.41232 -30.54214,-34.66256c3.57747,-6.42812 9.78187,-3.0456 26.20215,-0.95213c6.9955,0.89188 25.14825,-1.33316 32.94043,0.52693c20.37339,4.86336 35.22273,18.00093 39.24566,31.14819z" fill="url(#color-16)" stroke="#8a0000" stroke-linecap="butt"></path><path d="M299.34778,83.96732c0.43015,1.40579 1.23505,2.64027 1.30164,4.00794c0.06926,1.42252 -0.66024,2.98909 -3.44091,5.04234c-8.29163,6.12247 -27.96314,14.4734 -45.00222,19.68719c-28.2472,8.64332 -51.771,13.60793 -53.98267,6.37999c-0.94302,-3.0819 -5.58162,-6.11623 0.45638,-11.28c8.12278,-6.94673 32.15081,-7.04651 48.35373,-12.00443c18.36963,-5.62091 37.29619,-20.0331 47.45379,-19.0719c5.46186,0.51683 4.08691,4.71139 4.86032,7.23886z" fill="url(#color-17)" stroke="none" stroke-linecap="butt"></path><path d="M201.28334,29.03413c2.48814,8.1314 -2.39054,16.83322 -10.89682,19.43603c-8.50626,2.60284 -17.41895,-1.87896 -19.90709,-10.01039c-2.48814,-8.1314 2.39054,-16.8332 10.8968,-19.43602c8.50626,-2.60284 17.41898,1.87894 19.90711,10.01037z" fill="url(#color-18)" stroke="none" stroke-linecap="butt"></path><g fill="none" stroke="#bdbdbd" stroke-linecap="round"><g><path d="M186.40079,17.96987l1.81109,4.4829l-3.563,-3.21555"></path><path d="M190.16317,17.86514l-2.07002,4.36941l-0.04909,-4.79917"></path></g><path d="M192.15599,18.42913l-0.64034,4.79234l-1.50895,-4.55603"></path><path d="M195.47883,20.19705l-3.95857,2.77605l2.32854,-4.19671"></path><g><path d="M196.46852,19.87939l-2.81356,3.932l0.80456,-4.73149"></path><path d="M198.57376,22.99941l-4.79821,0.59473l4.0251,-2.61403"></path></g><g><path d="M200.03294,23.66479l-4.35242,2.10548l2.97124,-3.76912"></path><path d="M200.38785,27.41187l-4.4975,-1.7746l4.78528,-0.3684"></path></g><g><path d="M202.37958,27.35794l-4.35243,2.10549l2.97125,-3.76912"></path><path d="M202.73449,31.10501l-4.4975,-1.77462l4.78528,-0.3684"></path></g></g><path d="M195.7782,36.49712c0,0 0.59524,3.26913 -0.78095,3.72485c-0.7961,0.26365 -3.1851,0.03824 -4.17044,0.03244c-1.03509,-0.00611 -0.42434,2.28657 -1.65947,2.56237c-1.23516,0.27579 -2.83294,0.20877 -3.70861,0.34697c-1.15083,0.18165 -2.92575,0.33675 -3.43491,0.43768c-0.75585,0.14984 -2.71609,-1.02876 -2.71609,-1.02876" fill="none" stroke="#9a9a9a" stroke-linecap="round"></path><path d="M186.46061,21.25668c0,0 1.23569,-0.30265 1.61245,-0.09836c0.25381,0.13761 1.17099,0.51282 1.75234,0.79916c0.44234,0.21787 1.3021,0.44589 1.91269,0.79615c0.61057,0.35027 -0.09208,1.46731 0.45874,1.63485c0.52434,0.15946 1.83051,0.43388 2.20988,0.70525c0.6558,0.46911 -0.19968,2.10738 -0.19968,2.10738" fill="none" stroke="#9a9a9a" stroke-linecap="round"></path><path d="M292.92769,85.92136c0,0 -1.06754,3.1466 -1.97123,4.40257c-0.86777,1.20605 -3.34751,2.98957 -3.34751,2.98957" fill="none" stroke="#929292" stroke-linecap="round"></path><path d="M266.52141,95.70271c0,0 1.5098,-2.7091 2.46564,-3.63605c0.92967,-0.90157 3.19303,-1.85163 3.19303,-1.85163" fill="none" stroke="#989898" stroke-linecap="round"></path><path d="M258.65369,97.27167c0,0 2.06172,-1.33219 3.33066,-1.59079c1.30466,-0.26587 4.39318,0.01683 4.39318,0.01683" fill="none" stroke="#989898" stroke-linecap="round"></path><path d="M212.60005,109.60861c0,0 -3.26789,2.60506 -5.07774,3.32039c-1.73792,0.68689 -5.57435,0.88971 -5.57435,0.88971" fill="none" stroke="#929292" stroke-linecap="round"></path><path d="M218.60771,107.82952c0,0 -2.79318,1.34795 -4.10821,1.55656c-1.27904,0.20289 -3.67701,-0.32156 -3.67701,-0.32156" fill="none" stroke="#989898" stroke-linecap="round"></path><path d="M232.54687,111.87556c0,0 5.35539,-2.37338 7.85891,-2.77752c2.43502,-0.39308 6.96248,0.3849 6.96248,0.3849" fill="none" stroke="#989898" stroke-linecap="round"></path><path d="M244.02719,108.98073c0,0 2.06172,-1.33219 3.33067,-1.59077c1.30466,-0.26587 4.39316,0.01683 4.39316,0.01683" fill="none" stroke="#989898" stroke-linecap="round"></path></g></g></g></svg>